<?xml version="1.0" encoding="utf-8" ?>
<svg xmlns="http://www.w3.org/2000/svg" xmlns:xlink="http://www.w3.org/1999/xlink" width="320" height="324">
	<path fill="#7caac1" d="M0 0L156.005 0L196.981 0L320 0L320 128.802L320 161.662L320 323.562C319.733 323.732 319.444 323.876 319.129 323.93C317.322 324.241 315.1 323.998 313.246 323.999L300.037 324.001L250.518 324.002L69.9948 324.003L23.4485 324.001L8.71597 323.999C6.21104 323.999 3.5905 324.155 1.0972 323.954C0.677243 323.921 0.354782 323.788 0 323.562L0 0Z"/>
	<path fill="#FEFEFE" d="M0 0L156.005 0C155.951 0.0432372 155.897 0.0877647 155.841 0.129712C153.228 2.10227 149.253 2.67798 146.238 3.98722C136.849 8.06437 129.025 14.8302 122.149 22.2917C112.986 32.2349 106.73 44.5579 100.11 56.2461C92.9249 68.9317 85.6586 81.7278 77.2715 93.6666C69.8475 104.234 61.3207 114.224 52.5416 123.684C44.8794 131.941 36.0715 139.879 30.1572 149.512C22.7462 161.584 14.9282 178.463 12.722 192.473C10.5966 205.97 12.3106 217.536 20.4867 228.692C41.5854 257.481 112.842 281.473 147.686 286.748C173.795 290.7 201.29 289.061 225.913 278.95C239.1 273.535 251.241 265.948 262.679 257.512C282.009 243.256 295.29 225.297 305.349 203.64C308.411 197.049 311.239 190.35 313.311 183.373C314.579 179.101 317.811 164.213 320 161.662L320 323.562C319.733 323.732 319.444 323.876 319.129 323.93C317.322 324.241 315.1 323.998 313.246 323.999L300.037 324.001L250.518 324.002L69.9948 324.003L23.4485 324.001L8.71597 323.999C6.21104 323.999 3.5905 324.155 1.0972 323.954C0.677243 323.921 0.354782 323.788 0 323.562L0 0Z"/>
	<path fill="#FEFEFE" d="M196.981 0L320 0L320 128.802C316.481 124.715 313.237 105.346 311.144 98.794C309.35 93.1751 306.993 87.68 304.515 82.3295C300.884 74.4917 296.855 66.9954 291.801 59.9677C288.05 54.7509 283.727 50.13 279.26 45.5331C263.152 28.9585 244.907 16.3727 223.146 8.3894C217.704 6.39288 200.568 2.56009 197.129 0.111721C197.078 0.0758637 197.03 0.0372402 196.981 0Z"/>
</svg>
