<?xml version="1.0" encoding="utf-8" ?>
<svg xmlns="http://www.w3.org/2000/svg" xmlns:xlink="http://www.w3.org/1999/xlink" width="476" height="1008">
	<path fill="#FEFEFE" d="M0 0L14.5863 0L81.6823 0L90.447 0L157.649 0L166.256 0L233.709 0L242.432 0L309.793 0L318.528 0L385.615 0L394.66 0L461.331 0L470.524 0L476 0L476 5.11682L476 15.3914L476 80.6457L476 91.4244L476 156.589L476 167.524L476 232.573L476 243.517L476 308.653L476 319.622L476 384.383L476 395.502L476 460.687L476 471.4L476 535.672L476 546.931L476 611.901L476 622.761L476 687.779L476 698.847L476 764.168L476 774.852L476 839.783L476 850.693L476 915.692L476 926.906L476 991.841L476 1002.22L476 1007.14C475.87 1007.22 475.743 1007.3 475.611 1007.37C473.896 1008.32 472.728 1007.96 470.999 1007.38C470.617 1007.58 470.249 1007.72 469.824 1007.81C467.369 1008.35 462.394 1008.47 460.218 1007.15C459.689 1007.48 459.119 1007.75 458.503 1007.87C453.636 1008.79 443.184 1008.02 437.861 1008.02C424.442 1008.03 410.622 1008.73 397.241 1007.94C396.279 1007.88 395.606 1007.66 394.79 1007.16C394.538 1007.33 394.282 1007.49 393.997 1007.6C391.715 1008.51 386.688 1008.3 384.408 1007.37C384.19 1007.48 384.128 1007.51 383.875 1007.61C381.43 1008.53 321.521 1008.45 319.016 1007.37C318.693 1007.53 318.36 1007.67 318.01 1007.75C315.612 1008.35 310.326 1008.5 308.195 1007.16C307.876 1007.37 307.567 1007.53 307.212 1007.67C305.064 1008.51 245.08 1008.39 242.735 1007.37C242.406 1007.53 242.068 1007.67 241.712 1007.76C239.351 1008.35 234.458 1008.46 232.342 1007.14C231.803 1007.47 231.222 1007.75 230.595 1007.87C225.748 1008.8 215.26 1008.02 209.952 1008.02C196.536 1008.03 182.71 1008.73 169.334 1007.94C168.361 1007.88 167.675 1007.65 166.849 1007.15C166.396 1007.45 165.909 1007.7 165.378 1007.83C163.078 1008.38 158.587 1008.41 156.52 1007.15C155.986 1007.48 155.411 1007.75 154.789 1007.87C149.933 1008.79 139.461 1008.02 134.146 1008.02C120.73 1008.03 106.905 1008.73 93.528 1007.94C92.5555 1007.88 91.868 1007.65 91.0424 1007.15C90.5907 1007.45 90.1048 1007.7 89.5727 1007.83C87.1904 1008.38 82.3688 1008.46 80.2545 1007.15C79.7972 1007.43 79.3314 1007.65 78.814 1007.79C75.9165 1008.59 23.3006 1008.39 16.9849 1007.92C16.121 1007.86 15.4464 1007.6 14.7011 1007.17C14.2566 1007.46 13.7836 1007.7 13.2688 1007.83C11.0805 1008.38 6.45883 1008.4 4.50258 1007.17C4.2726 1007.3 4.03877 1007.43 3.79731 1007.53C2.21386 1008.22 1.45364 1007.74 0 1007.14L0 1000.93L0 993.582L0 924.76L0 917.292L0 848.532L0 841.523L0 772.691L0 765.704L0 696.811L0 689.424L0 620.599L0 613.097L0 544.538L0 537.352L0 468.858L0 462.25L0 392.837L0 386.113L0 317.189L0 310.164L0 240.953L0 234.159L0 164.627L0 158.232L0 88.8985L0 82.2794L0 13.2195L0 0Z"/>
	<path fill="#0a72a4" d="M460.218 1007.15C460.209 1006.52 460.206 1005.87 460.145 1005.24C459.96 1003.35 457.956 1002.38 456.608 1001.23C456.157 1000.28 455.921 999.468 455.881 998.421C455.777 995.662 456.944 993.224 458.828 991.248C460.805 989.175 463.575 987.667 466.485 987.617C471.947 987.524 469.706 989.978 472.216 992.443C473.542 992.692 474.334 992.457 475.571 992.002L476 991.841L476 1002.22L476 1007.14C475.87 1007.22 475.743 1007.3 475.611 1007.37C473.896 1008.32 472.728 1007.96 470.999 1007.38C470.617 1007.58 470.249 1007.72 469.824 1007.81C467.369 1008.35 462.394 1008.47 460.218 1007.15Z"/>
	<path fill="#FEFEFE" d="M470.999 1007.38C470.754 1006.14 470.534 1005.2 470.941 1003.96C472.289 1002.85 474.095 1003.09 475.693 1002.36C475.796 1002.32 475.898 1002.27 476 1002.22L476 1007.14C475.87 1007.22 475.743 1007.3 475.611 1007.37C473.896 1008.32 472.728 1007.96 470.999 1007.38Z"/>
	<path fill="#0a72a4" d="M461.331 0L470.524 0L476 0L476 5.11682L476 15.3914C475.634 15.4017 475.273 15.4186 474.908 15.4545C474.767 15.4684 474.626 15.486 474.485 15.5008C472.248 15.7349 471.48 18.3467 469.335 19.0937C466.811 19.9725 464.156 19.8979 461.761 18.6641C459.328 17.4103 457.369 15.1557 456.586 12.5205C454.922 6.92433 458.785 4.72995 461.128 0.382997L461.331 0Z"/>
	<path fill="#FEFEFE" d="M470.524 0L476 0L476 5.11682C474.548 5.08767 473.366 5.09624 472.046 4.41354C470.851 3.29655 470.789 1.53481 470.524 0Z"/>
	<defs>
		<linearGradient id="gradient_0" gradientUnits="userSpaceOnUse" x1="16.881227" y1="992.95093" x2="2.8944423" y2="1002.6592">
			<stop offset="0" stop-color="#009F3D"/>
			<stop offset="1" stop-color="#00BB52"/>
		</linearGradient>
	</defs>
	<path fill="url(#gradient_0)" d="M0 993.582C0.065433 993.574 0.131331 993.57 0.196299 993.559C4.82291 992.773 7.611 984.179 13.9738 988.471C16.8081 990.384 19.1686 993.642 19.8163 997.025C20.0996 998.504 20.1022 1000.55 19.1493 1001.81C17.4374 1004.07 14.675 1003.5 14.7011 1007.17C14.2566 1007.46 13.7836 1007.7 13.2688 1007.83C11.0805 1008.38 6.45883 1008.4 4.50258 1007.17C4.2726 1007.3 4.03877 1007.43 3.79731 1007.53C2.21386 1008.22 1.45364 1007.74 0 1007.14L0 1000.93L0 993.582Z"/>
	<path fill="#FEFEFE" d="M0 1000.93C1.34217 1001.96 4.22347 1003.28 4.41714 1005.04C4.49529 1005.75 4.50328 1006.46 4.50258 1007.17C4.2726 1007.3 4.03877 1007.43 3.79731 1007.53C2.21386 1008.22 1.45364 1007.74 0 1007.14L0 1000.93Z"/>
	<path fill="#0a72a4" d="M0 0L14.5863 0C17.2257 3.66263 20.1351 7.38428 19.3224 12.2135C18.9387 14.6248 17.5753 16.7703 15.555 18.1416C13.5691 19.475 11.1681 19.8658 8.84462 19.3713C5.06053 18.5659 2.58609 15.8822 0 13.2195L0 0Z"/>
	<path fill="#0a72a4" d="M308.195 1007.16C308.181 1007.06 308.171 1006.96 308.153 1006.86C307.203 1001.45 300.776 999.537 305.541 992.366C307.032 990.123 309.491 988.625 312.129 988.155C314.793 987.68 317.536 988.315 319.72 989.912C321.724 991.348 323.07 993.527 323.456 995.962C323.858 998.556 323.366 1000.79 321.775 1002.87C320.59 1004.42 319.559 1005.44 319.016 1007.37C318.693 1007.53 318.36 1007.67 318.01 1007.75C315.612 1008.35 310.326 1008.5 308.195 1007.16Z"/>
	<defs>
		<linearGradient id="gradient_1" gradientUnits="userSpaceOnUse" x1="90.767509" y1="990.5517" x2="79.941528" y2="1005.0785">
			<stop offset="0" stop-color="#009835"/>
			<stop offset="1" stop-color="#00B447"/>
		</linearGradient>
	</defs>
	<path fill="url(#gradient_1)" d="M76.4666 1000.45C75.9092 997.302 75.8333 995.007 77.7499 992.298C79.3307 990.064 82.001 988.53 84.6986 988.146C87.1707 987.807 89.6772 988.452 91.6779 989.943C93.9761 991.673 95.3065 994.152 95.6218 997.002C95.8125 998.725 95.8551 1000.51 94.6896 1001.91C93.0419 1003.9 91.2807 1004.2 91.0424 1007.15C90.5907 1007.45 90.1048 1007.7 89.5727 1007.83C87.1904 1008.38 82.3688 1008.46 80.2545 1007.15C79.8188 1004.4 77.6689 1002.83 76.4666 1000.45Z"/>
	<path fill="#0a72a4" d="M476 850.693C472.298 852.028 470.183 855.286 466.035 855.714C464.208 855.902 462.3 855.654 460.858 854.448C458.498 852.474 456.716 849.511 456.468 846.412C456.246 843.647 457.237 840.945 459.074 838.878C460.728 837.016 462.996 835.821 465.495 835.676C471.592 835.324 469.597 837.777 472.673 840.456C473.859 840.714 474.556 840.428 475.617 839.956L476 839.783L476 850.693Z"/>
	<path fill="#0a72a4" d="M232.342 1007.14C232.306 1007.01 232.271 1006.87 232.233 1006.74C230.722 1001.5 225.697 999.279 229.174 992.92C230.399 990.68 232.593 989.144 235.028 988.462C237.651 987.727 240.351 988.06 242.7 989.455C244.974 990.805 246.753 992.984 247.396 995.571C247.793 997.173 247.649 998.737 247.427 1000.35C247.175 1002.18 243.645 1004.2 242.735 1007.37C242.406 1007.53 242.068 1007.67 241.712 1007.76C239.351 1008.35 234.458 1008.46 232.342 1007.14Z"/>
	<path fill="#0a72a4" d="M476 774.852C472.296 776.327 469.334 779.538 465.142 779.712C463.101 779.797 461.319 778.899 459.868 777.513C457.728 775.468 456.323 772.746 456.316 769.752C456.335 766.979 457.489 764.334 459.51 762.434C461.387 760.618 463.928 759.654 466.537 759.769C470.42 759.948 470.361 761.753 472.599 764.254C473.778 764.719 474.452 764.616 475.62 764.28L476 764.168L476 774.852Z"/>
	<path fill="#0a72a4" d="M476 395.502C472.041 395.604 469.827 399.356 465.655 399.633C463.419 399.781 461.4 399.275 459.733 397.722C457.615 395.749 456.473 392.596 456.47 389.739C456.467 387.003 457.5 384.302 459.473 382.377C461.283 380.61 463.66 379.798 466.174 379.859C469.258 379.933 470.035 381.581 472.032 383.523C473.208 384.667 474.474 384.362 476 384.383L476 395.502Z"/>
	<path fill="#0a72a4" d="M384.408 1007.37C384.373 1007.22 384.34 1007.07 384.302 1006.92C382.983 1001.63 377.587 999.294 381.237 992.911C382.565 990.589 384.948 989.025 387.516 988.403C390.119 987.757 392.873 988.214 395.128 989.666C397.445 991.157 399.041 993.541 399.538 996.251C399.853 997.913 399.885 999.913 399.132 1001.46C396.937 1003.48 395.591 1004.15 394.79 1007.16C394.538 1007.33 394.282 1007.49 393.997 1007.6C391.715 1008.51 386.688 1008.3 384.408 1007.37Z"/>
	<defs>
		<linearGradient id="gradient_2" gradientUnits="userSpaceOnUse" x1="165.86447" y1="989.82446" x2="156.99129" y2="1006.0123">
			<stop offset="0" stop-color="#009630"/>
			<stop offset="1" stop-color="#01B248"/>
		</linearGradient>
	</defs>
	<path fill="url(#gradient_2)" d="M156.52 1007.15C156.484 1007.01 156.45 1006.88 156.412 1006.75C154.926 1001.55 149.747 999.682 153.132 993.241C154.353 990.919 156.561 989.205 159.056 988.432C161.515 987.668 164.179 987.947 166.427 989.203C168.93 990.585 170.667 992.931 171.395 995.681C171.827 997.309 172.114 999.625 171.243 1001.16C169.936 1003.45 166.87 1004.06 166.849 1007.15C166.396 1007.45 165.909 1007.7 165.378 1007.83C163.078 1008.38 158.587 1008.41 156.52 1007.15Z"/>
	<path fill="#0a72a4" d="M476 167.524C471.894 167.876 469.801 171.539 465.54 171.686C463.323 171.763 461.263 170.997 459.664 169.454C457.664 167.524 456.527 164.558 456.534 161.798C456.522 158.941 457.677 156.202 459.732 154.217C461.538 152.493 463.857 151.633 466.352 151.712C469.219 151.802 470.22 153.559 472.032 155.44C473.317 156.775 474.256 156.51 476 156.589L476 167.524Z"/>
	<path fill="#0a72a4" d="M476 243.517C471.821 243.656 469.796 247.501 465.327 247.588C463.078 247.632 461.079 247.004 459.461 245.389C457.499 243.431 456.468 240.405 456.506 237.664C456.542 234.871 457.692 232.208 459.699 230.266C461.534 228.506 463.871 227.632 466.417 227.736C469.392 227.858 470.171 229.455 472.027 231.407C473.282 232.725 474.296 232.477 476 232.573L476 243.517Z"/>
	<path fill="#0a72a4" d="M476 546.931C472.093 548.031 469.746 551.393 465.455 551.819C463.699 551.993 462.067 551.409 460.729 550.277C458.382 548.293 456.588 545.237 456.413 542.134C456.264 539.474 457.246 536.969 459.057 535.037C461.005 532.959 463.681 531.917 466.508 531.868C471.064 531.789 470.01 533.896 472.587 536.342C474.142 536.548 474.607 536.281 476 535.672L476 546.931Z"/>
	<path fill="#0a72a4" d="M476 471.4C475.938 471.406 475.876 471.41 475.814 471.418C475.712 471.43 475.61 471.449 475.507 471.458C471.638 471.783 469.887 475.641 465.625 475.687C463.228 475.713 461.105 474.868 459.437 473.133C457.435 471.05 456.368 467.988 456.504 465.116C456.647 462.409 457.852 459.868 459.856 458.042C461.728 456.38 464.199 455.556 466.694 455.762C469.593 455.988 470.313 457.579 472.083 459.532C473.29 460.862 474.322 460.595 476 460.687L476 471.4Z"/>
	<path fill="#0a72a4" d="M476 319.622C471.429 319.991 469.209 324.156 464.173 323.51C461.88 323.216 459.767 322.067 458.362 320.214C456.752 318.091 456.145 315.282 456.511 312.665C456.909 309.828 458.425 307.392 460.753 305.726C463.968 303.426 466.552 303.737 470.196 304.383L471.828 307.789C473.31 308.768 474.247 308.589 476 308.653L476 319.622Z"/>
	<path fill="#0a72a4" d="M476 91.4244C475.667 91.4477 475.34 91.4965 475.008 91.5212C471.375 91.7924 469.852 95.8089 465.551 95.7496C463.271 95.7183 461.17 94.8687 459.576 93.2223C457.5 91.0555 456.398 88.1352 456.526 85.1371C456.671 82.4408 457.882 79.9126 459.891 78.1081C461.754 76.4695 464.193 75.6416 466.668 75.8078C469.733 76.005 470.344 77.7168 472.261 79.6933C473.344 80.8095 474.567 80.5819 476 80.6457L476 91.4244Z"/>
	<path fill="#0a72a4" d="M476 698.847C475.578 699.138 475.768 699.044 475.351 699.211C472.164 700.492 469.728 703.134 466.131 703.502C464.078 703.713 462.228 703.336 460.617 702.025C458.444 700.256 456.438 697.354 456.24 694.489C456.051 691.776 457.333 689.165 459.077 687.159C460.804 685.172 463.045 683.783 465.711 683.624C470.262 683.352 470.031 685.961 472.881 688.48C474.294 688.759 474.737 688.375 476 687.779L476 698.847Z"/>
	<path fill="#0a72a4" d="M476 622.761C472.382 623.972 470.264 627.001 466.314 627.539C464.308 627.813 462.573 627.73 460.952 626.414C458.512 624.434 456.612 621.113 456.334 617.973C456.124 615.607 456.761 613.745 458.304 611.929C460.254 609.636 463.21 607.893 466.259 607.725C470.895 607.47 470.133 610.137 472.715 612.483C473.882 612.827 474.558 612.535 475.615 612.072L476 611.901L476 622.761Z"/>
	<path fill="#0a72a4" d="M476 926.906C475.177 927.286 474.234 927.378 473.419 927.802C470.602 929.266 469.605 931.348 466.056 931.586C463.68 931.746 461.416 931.056 459.664 929.42C457.641 927.531 456.563 924.644 456.547 921.906C456.531 918.979 457.819 916.443 459.885 914.419C461.414 912.92 463.852 911.239 466.107 911.367C468.839 911.524 471.362 914.543 473.116 916.396C474.443 916.604 474.833 916.271 476 915.692L476 926.906Z"/>
	<path fill="#0a72a4" d="M233.709 0L242.432 0C244.55 2.47924 246.736 5.3836 247.414 8.62081C247.916 11.0173 247.586 13.4208 246.162 15.4514C244.682 17.5633 242.19 18.9572 239.676 19.3987C236.984 19.8717 234.04 19.2686 231.839 17.6171C229.96 16.1975 228.757 14.0595 228.519 11.7165C227.966 6.76748 230.833 3.57762 233.709 0Z"/>
	<path fill="#0a72a4" d="M81.6823 0L90.447 0C92.6637 2.86969 95.1848 5.85823 95.6691 9.5795C95.9461 11.7069 95.3875 13.758 94.075 15.4549C92.4034 17.6161 89.7281 19.0528 87.0258 19.3688C84.3271 19.6686 81.6205 18.8777 79.5081 17.1719C77.7615 15.7791 76.5481 13.835 76.3158 11.5909C75.8299 6.89663 78.979 3.39621 81.6823 0Z"/>
	<path fill="#0a72a4" d="M385.615 0L394.66 0C396.165 2.1424 397.897 4.49582 398.771 6.96766C399.68 9.54003 399.918 12.491 398.634 14.9823C397.571 17.0435 395.586 18.4036 393.397 19.0479C390.603 19.8702 387.511 19.6188 384.964 18.1697C382.791 16.9327 381.116 14.8995 380.528 12.447C379.237 7.05831 383.107 4.11957 385.615 0Z"/>
	<path fill="#0a72a4" d="M0 841.523C0.0640052 841.51 0.128634 841.5 0.192016 841.484C5.36293 840.202 6.74538 832.411 14.9357 836.999C17.0808 838.2 18.469 840.358 19.0943 842.701C19.8447 845.512 19.5906 848.411 18.0918 850.932C16.7795 853.139 14.5143 855.134 11.9731 855.736C9.96574 856.211 7.92258 855.703 6.19778 854.611C4.01307 853.227 1.45471 850.674 0 848.532L0 841.523Z"/>
	<path fill="#0a72a4" d="M309.793 0L318.528 0C320.48 2.73072 322.469 5.50772 323.188 8.85332C323.698 11.226 323.51 13.6354 322.104 15.6707C320.679 17.7324 318.278 18.9355 315.847 19.3353C313.046 19.7961 310.207 19.2103 307.895 17.5358C305.955 16.1306 304.638 14.0673 304.32 11.6795C303.633 6.5308 307.019 3.75549 309.793 0Z"/>
	<path fill="#0a72a4" d="M0 234.159C3.05242 231.422 6.84786 227.56 11.2943 227.738C13.2826 227.817 14.9781 228.775 16.2899 230.232C18.3579 232.529 19.6252 235.8 19.3764 238.907C19.1548 241.676 17.6993 244.398 15.5594 246.161C14.0518 247.403 12.2423 248.047 10.2852 247.85C6.07045 247.424 2.79059 243.806 0 240.953L0 234.159Z"/>
	<path fill="#0a72a4" d="M157.649 0L166.256 0C168.442 2.86058 170.716 5.70275 171.378 9.34365C171.775 11.5312 171.483 13.8345 170.177 15.6805C168.721 17.7368 166.296 18.9323 163.852 19.318C161.074 19.7746 158.231 19.0761 155.981 17.3847C153.985 15.9037 152.623 13.7743 152.307 11.2909C151.688 6.42055 154.945 3.5438 157.649 0Z"/>
	<path fill="#0a72a4" d="M0 537.352C0.0635852 537.338 0.127776 537.327 0.190755 537.311C5.294 536.017 6.83805 528.659 14.6543 532.905C16.9027 534.126 18.3737 536.33 19.0666 538.753C19.8381 541.452 19.6243 544.249 18.2497 546.713C17.0246 548.908 14.9301 550.895 12.4557 551.559C10.2177 552.16 8.03305 551.516 6.10351 550.337C3.93459 549.012 1.50127 546.581 0 544.538L0 537.352Z"/>
	<path fill="#0a72a4" d="M0 689.424C0.0648943 689.415 0.130291 689.409 0.194683 689.397C5.22971 688.437 7.11928 680.174 15.1946 685.268C17.35 686.628 18.706 689.048 19.2048 691.506C19.7896 694.387 19.341 697.239 17.6603 699.681C16.2648 701.708 14.07 703.435 11.585 703.805C9.02525 704.187 6.76895 703.06 4.80604 701.523C3.16107 700.235 1.15353 698.559 0 696.811L0 689.424Z"/>
	<path fill="#0a72a4" d="M0 462.25C3.02745 459.411 6.84271 455.504 11.3384 455.705C13.3516 455.795 15.032 456.826 16.3486 458.305C18.3243 460.524 19.5469 463.657 19.3662 466.643C19.1953 469.464 17.7696 472.232 15.6496 474.089C14.2183 475.343 12.4722 476.058 10.5538 475.914C6.22381 475.589 2.8309 471.772 0 468.858L0 462.25Z"/>
	<path fill="#0a72a4" d="M0 158.232C2.93945 155.427 6.7177 151.53 11.0732 151.546C12.942 151.553 14.5431 152.401 15.8261 153.723C18.0106 155.972 19.4876 159.306 19.3411 162.471C19.2039 165.435 17.6487 168.325 15.4089 170.242C13.9791 171.466 12.2484 172.144 10.3538 171.943C6.05013 171.487 2.75021 167.597 0 164.627L0 158.232Z"/>
	<path fill="#0a72a4" d="M0 613.097C5.61296 612.335 8.06506 603.822 15.8669 609.763C18.0013 611.388 19.1711 613.98 19.4512 616.606C19.7555 619.46 18.9318 622.207 17.0701 624.397C15.526 626.213 13.2829 627.689 10.8484 627.823C8.21285 627.967 5.916 626.662 4.02766 624.929C2.64672 623.661 1.00641 622.176 0 620.599L0 613.097Z"/>
	<defs>
		<linearGradient id="gradient_3" gradientUnits="userSpaceOnUse" x1="18.247417" y1="313.01352" x2="1.357394" y2="313.61423">
			<stop offset="0" stop-color="#00A33E"/>
			<stop offset="1" stop-color="#00C050"/>
		</linearGradient>
	</defs>
	<path fill="url(#gradient_3)" d="M0 310.164C3.05281 307.428 6.87546 303.598 11.3177 303.831C13.4893 303.945 15.2638 305.044 16.6428 306.681C18.5856 308.986 19.6622 312.222 19.3417 315.231C19.0622 317.855 17.7272 320.406 15.6662 322.07C14.1137 323.323 12.2317 323.943 10.2375 323.702C6.0981 323.202 2.88028 319.906 0 317.189L0 310.164Z"/>
	<defs>
		<linearGradient id="gradient_4" gradientUnits="userSpaceOnUse" x1="18.544622" y1="920.43018" x2="1.2026279" y2="922.36841">
			<stop offset="0" stop-color="#00A23C"/>
			<stop offset="1" stop-color="#01BE50"/>
		</linearGradient>
	</defs>
	<path fill="url(#gradient_4)" d="M0 917.292C0.066229 917.287 0.132799 917.286 0.198687 917.278C4.7373 916.702 7.46765 907.733 15.7089 913.67C17.858 915.218 19.0861 917.694 19.4324 920.285C19.8052 923.074 19.1079 925.784 17.3322 927.979C15.751 929.933 13.4695 931.484 10.9053 931.673C7.80485 931.902 5.40534 930.133 3.21508 928.163C2.0442 927.111 0.881971 926.077 0 924.76L0 917.292Z"/>
	<path fill="#0a72a4" d="M0 82.2794C3.04782 79.4513 6.80793 75.5389 11.3245 75.7389C13.3383 75.828 15.0202 76.8642 16.3379 78.3411C18.3158 80.5582 19.5466 83.6865 19.3563 86.6737C19.1757 89.5063 17.7216 92.2343 15.5801 94.0781C14.088 95.3627 12.2456 96.0378 10.2699 95.8202C6.07795 95.3584 2.79217 91.7345 0 88.8985L0 82.2794Z"/>
	<defs>
		<linearGradient id="gradient_5" gradientUnits="userSpaceOnUse" x1="17.987589" y1="767.41351" x2="1.2044853" y2="771.6582">
			<stop offset="0" stop-color="#009E3F"/>
			<stop offset="1" stop-color="#00BB4E"/>
		</linearGradient>
	</defs>
	<path fill="url(#gradient_5)" d="M0 765.704C0.0651055 765.695 0.130739 765.689 0.195317 765.677C5.06291 764.746 6.90485 756.045 15.1775 761.257C17.4677 762.7 18.7034 765.084 19.219 767.681C19.7603 770.407 19.2955 773.146 17.739 775.463C16.321 777.574 14.003 779.362 11.4508 779.771C9.15987 780.139 7.00899 779.254 5.19798 777.895C3.43542 776.572 1.15489 774.561 0 772.691L0 765.704Z"/>
	<path fill="#0a72a4" d="M0 386.113C3.50705 383.216 7.16698 379.804 12.0987 380.249C14.1788 380.437 15.9785 381.384 17.2707 383.03C19.0336 385.275 19.7868 388.442 19.4157 391.254C19.0698 393.876 17.6699 396.484 15.5278 398.071C13.8412 399.342 11.6975 399.844 9.62167 399.455C5.5194 398.727 2.71286 395.752 0 392.837L0 386.113Z"/>
	<path fill="#0a72a4" d="M235.638 836.254C240.871 834.968 246.161 838.148 247.478 843.372C248.796 848.597 245.647 853.905 240.43 855.253C235.169 856.612 229.806 853.432 228.477 848.163C227.149 842.895 230.361 837.552 235.638 836.254Z"/>
	<path fill="#0a72a4" d="M160.533 532.121C165.834 531.331 170.785 534.95 171.641 540.24C172.498 545.53 168.941 550.525 163.662 551.448C160.187 552.056 156.654 550.747 154.413 548.023C152.172 545.299 151.57 541.58 152.837 538.288C154.104 534.997 157.044 532.64 160.533 532.121Z"/>
	<path fill="#0a72a4" d="M388.357 152.106C391.864 151.524 395.411 152.888 397.623 155.671C399.836 158.453 400.366 162.216 399.009 165.501C397.652 168.787 394.62 171.078 391.089 171.488C385.81 172.101 381.006 168.391 380.265 163.13C379.523 157.868 383.114 152.976 388.357 152.106Z"/>
	<path fill="#0a72a4" d="M387.854 836.225C391.33 835.456 394.949 836.633 397.307 839.3C399.664 841.966 400.388 845.703 399.197 849.057C398.006 852.411 395.088 854.854 391.577 855.438C386.343 856.308 381.37 852.851 380.361 847.644C379.352 842.436 382.675 837.373 387.854 836.225Z"/>
	<path fill="#0a72a4" d="M236.334 152.107C241.683 151.215 246.739 154.841 247.607 160.194C248.476 165.547 244.826 170.586 239.469 171.43C234.145 172.269 229.144 168.648 228.281 163.329C227.418 158.01 231.018 152.993 236.334 152.107Z"/>
	<path fill="#0a72a4" d="M83.7009 836.251C88.9361 835.013 94.1893 838.232 95.4622 843.458C96.7351 848.684 93.5506 853.958 88.3323 855.265C83.0648 856.585 77.7298 853.364 76.4449 848.089C75.1599 842.813 78.4164 837.5 83.7009 836.251Z"/>
	<path fill="#0a72a4" d="M236.532 532.105C241.816 531.323 246.751 534.923 247.618 540.193C248.486 545.463 244.966 550.455 239.71 551.407C236.234 552.038 232.688 550.745 230.433 548.025C228.178 545.306 227.565 541.582 228.829 538.283C230.093 534.984 233.037 532.623 236.532 532.105Z"/>
	<path fill="#0a72a4" d="M159.453 835.364C162.902 835.636 165.606 836.227 168.203 838.677C170.376 840.729 171.601 843.42 171.625 846.415C171.644 848.685 170.826 851.132 169.143 852.717C167.773 854.006 165.997 854.798 164.163 854.759C163.209 855.4 162.483 855.713 161.321 855.698C159.015 855.669 156.859 854.365 155.303 852.736C153.377 850.72 151.979 847.875 152.069 845.042C152.209 840.591 156.546 838.115 159.453 835.364Z"/>
	<path fill="#0a72a4" d="M160.139 152.153C165.467 151.146 170.598 154.666 171.577 159.999C172.555 165.332 169.008 170.443 163.669 171.393C158.371 172.336 153.305 168.822 152.334 163.529C151.363 158.236 154.85 153.152 160.139 152.153Z"/>
	<path fill="#0a72a4" d="M388.403 304.14C393.721 303.283 398.73 306.888 399.607 312.201C400.484 317.515 396.898 322.537 391.587 323.435C386.248 324.337 381.191 320.728 380.31 315.385C379.428 310.043 383.056 305.001 388.403 304.14Z"/>
	<path fill="#0a72a4" d="M387.048 760.453C392.162 758.865 397.602 761.684 399.251 766.778C400.901 771.872 398.146 777.344 393.072 779.054C389.735 780.179 386.051 779.423 383.428 777.074C380.804 774.726 379.646 771.149 380.395 767.709C381.144 764.269 383.685 761.497 387.048 760.453Z"/>
	<path fill="#0a72a4" d="M387.57 228.34C392.835 227.012 398.173 230.228 399.459 235.502C400.746 240.776 397.488 246.088 392.203 247.333C386.977 248.564 381.736 245.35 380.464 240.134C379.192 234.919 382.364 229.653 387.57 228.34Z"/>
	<path fill="#0a72a4" d="M84.3252 152.13C89.5987 151.233 94.6147 154.739 95.5819 160C96.5492 165.26 93.1085 170.321 87.8605 171.357C84.4038 172.04 80.8473 170.81 78.5511 168.138C76.255 165.465 75.5745 161.765 76.7699 158.45C77.9654 155.136 80.8518 152.722 84.3252 152.13Z"/>
	<path fill="#0a72a4" d="M159.449 228.35C164.689 226.962 170.058 230.102 171.416 235.349C172.773 240.596 169.601 245.946 164.345 247.272C159.133 248.587 153.838 245.448 152.491 240.244C151.145 235.041 154.253 229.727 159.449 228.35Z"/>
	<path fill="#0a72a4" d="M387.954 456.25C393.219 455.141 398.39 458.497 399.521 463.757C400.651 469.017 397.315 474.201 392.059 475.352C386.773 476.509 381.554 473.151 380.417 467.861C379.28 462.572 382.66 457.366 387.954 456.25Z"/>
	<path fill="#0a72a4" d="M235.494 228.339C240.711 226.976 246.046 230.097 247.413 235.313C248.78 240.529 245.662 245.865 240.447 247.235C235.227 248.607 229.883 245.486 228.515 240.265C227.147 235.045 230.272 229.704 235.494 228.339Z"/>
	<path fill="#0a72a4" d="M160.045 304.235C163.493 303.542 167.047 304.756 169.35 307.413C171.654 310.07 172.351 313.76 171.175 317.074C170 320.388 167.133 322.814 163.67 323.426C158.403 324.357 153.366 320.878 152.373 315.622C151.38 310.366 154.8 305.29 160.045 304.235Z"/>
	<path fill="#0a72a4" d="M84.501 532.113C89.795 531.314 94.7448 534.928 95.5963 540.213C96.4477 545.498 92.8832 550.483 87.6061 551.387C82.2543 552.304 77.1828 548.678 76.3193 543.318C75.4558 537.958 79.132 532.923 84.501 532.113Z"/>
	<path fill="#0a72a4" d="M83.5574 228.339C88.7819 227.018 94.0888 230.18 95.4122 235.404C96.7357 240.627 93.5748 245.935 88.3513 247.26C83.125 248.586 77.8136 245.423 76.4894 240.197C75.1653 234.971 78.3302 229.661 83.5574 228.339Z"/>
	<path fill="#0a72a4" d="M389.075 532.088C394.398 531.603 399.121 535.488 399.67 540.804C400.219 546.12 396.39 550.888 391.08 551.501C387.589 551.904 384.15 550.399 382.077 547.56C380.005 544.721 379.619 540.988 381.068 537.785C382.516 534.583 385.575 532.407 389.075 532.088Z"/>
	<path fill="#0a72a4" d="M387.763 608.317C393.031 607.105 398.281 610.405 399.472 615.678C400.663 620.95 397.341 626.186 392.063 627.355C386.815 628.518 381.615 625.219 380.431 619.977C379.247 614.735 382.525 609.522 387.763 608.317Z"/>
	<path fill="#0a72a4" d="M311.662 836.243C316.883 835.022 322.111 838.242 323.37 843.453C324.629 848.664 321.448 853.914 316.245 855.211C310.989 856.521 305.672 853.3 304.4 848.035C303.128 842.77 306.388 837.477 311.662 836.243Z"/>
	<path fill="#0a72a4" d="M159.553 608.338C164.775 607.016 170.082 610.177 171.406 615.399C172.73 620.621 169.57 625.927 164.348 627.253C159.124 628.579 153.813 625.418 152.489 620.194C151.164 614.97 154.327 609.661 159.553 608.338Z"/>
	<path fill="#0a72a4" d="M312.194 152.115C317.471 151.169 322.524 154.658 323.507 159.928C324.491 165.198 321.038 170.275 315.775 171.296C310.457 172.328 305.317 168.833 304.323 163.509C303.329 158.185 306.862 153.07 312.194 152.115Z"/>
	<path fill="#0a72a4" d="M83.7665 76.3021C88.9889 75.0863 94.2138 78.3124 95.4658 83.5256C96.7177 88.7389 93.5274 93.9853 88.3223 95.2731C83.0662 96.5735 77.7564 93.3454 76.4922 88.0811C75.2279 82.8167 78.4929 77.5299 83.7665 76.3021Z"/>
	<path fill="#0a72a4" d="M159.755 76.3021C164.917 75.0935 170.099 78.2275 171.425 83.3596C172.751 88.4917 169.736 93.7434 164.634 95.1859C161.23 96.1488 157.57 95.1928 155.072 92.6876C152.573 90.1825 151.627 86.521 152.599 83.1193C153.572 79.7175 156.31 77.1088 159.755 76.3021Z"/>
	<path fill="#0a72a4" d="M387.816 76.3025C391.282 75.5168 394.901 76.6775 397.263 79.3324C399.624 81.9872 400.355 85.7162 399.171 89.0662C397.986 92.4162 395.074 94.8571 391.568 95.4379C386.363 96.3001 381.416 92.8683 380.401 87.6915C379.386 82.5147 382.671 77.4691 387.816 76.3025Z"/>
	<path fill="#0a72a4" d="M235.983 456.241C241.167 455.157 246.269 458.408 247.476 463.564C248.684 468.721 245.556 473.898 240.429 475.229C237.002 476.118 233.362 475.081 230.919 472.519C228.475 469.956 227.613 466.271 228.664 462.891C229.716 459.511 232.517 456.965 235.983 456.241Z"/>
	<path fill="#0a72a4" d="M388.237 684.178C391.737 683.552 395.301 684.879 397.538 687.643C399.776 690.407 400.331 694.169 398.988 697.461C397.646 700.754 394.618 703.054 391.086 703.466C385.85 704.076 381.077 700.417 380.307 695.203C379.537 689.99 383.049 685.108 388.237 684.178Z"/>
	<path fill="#0a72a4" d="M235.655 608.325C240.855 607.064 246.101 610.227 247.411 615.414C248.722 620.602 245.609 625.876 240.433 627.236C235.188 628.614 229.826 625.449 228.498 620.192C227.17 614.935 230.385 609.604 235.655 608.325Z"/>
	<path fill="#0a72a4" d="M84.0128 456.242C89.2998 455.169 94.4536 458.591 95.5143 463.88C96.5749 469.169 93.1392 474.314 87.8471 475.362C82.5732 476.406 77.4491 472.985 76.3921 467.714C75.3351 462.443 78.744 457.312 84.0128 456.242Z"/>
	<path fill="#0a72a4" d="M84.3604 911.126C88.3583 912.242 91.2134 912.984 93.7903 916.554C95.3339 918.692 96.086 921.419 95.6443 924.042C95.2915 926.142 94.0963 928.008 92.3354 929.206C91.066 930.068 89.5214 931.139 87.9272 930.809C86.7732 931.599 85.9596 931.724 84.615 931.523C82.1792 931.159 79.3615 929.32 77.9054 927.363C76.5321 925.517 76.0157 923.218 76.3841 920.95C77.1482 916.245 80.7175 913.664 84.3604 911.126Z"/>
	<path fill="#0a72a4" d="M160.126 683.223C163.825 684.02 166.594 684.907 169.186 687.824C170.891 689.742 171.899 692.269 171.718 694.856C171.539 697.427 170.311 699.595 168.353 701.231C166.858 702.48 165.589 703.007 163.672 702.85C162.448 703.554 161.945 703.684 160.541 703.522C158.236 703.256 155.259 701.295 153.863 699.492C152.484 697.712 151.964 695.516 152.274 693.296C152.943 688.506 156.52 685.893 160.126 683.223Z"/>
	<path fill="#0a72a4" d="M235.792 76.3027C239.211 75.5167 242.79 76.6294 245.161 79.2161C247.532 81.8027 248.329 85.464 247.249 88.8022C246.168 92.1404 243.377 94.6402 239.94 95.3474C234.71 96.4233 229.587 93.0917 228.451 87.8751C227.315 82.6584 230.588 77.4987 235.792 76.3027Z"/>
	<path fill="#0a72a4" d="M236.151 304.204C239.609 303.55 243.15 304.81 245.417 307.501C247.684 310.192 248.325 313.895 247.093 317.191C245.861 320.487 242.949 322.863 239.472 323.408C234.213 324.232 229.266 320.685 228.358 315.441C227.451 310.196 230.921 305.193 236.151 304.204Z"/>
	<path fill="#0a72a4" d="M387.373 380.422C390.786 379.479 394.442 380.46 396.923 382.986C399.404 385.512 400.32 389.184 399.315 392.579C398.31 395.974 395.543 398.557 392.087 399.326C386.927 400.474 381.793 397.3 380.514 392.172C379.236 387.043 382.279 381.831 387.373 380.422Z"/>
	<path fill="#0a72a4" d="M312.8 532.098C318.087 531.501 322.876 535.256 323.558 540.532C324.24 545.809 320.563 550.657 315.297 551.424C311.815 551.93 308.33 550.521 306.179 547.735C304.029 544.95 303.547 541.222 304.919 537.982C306.291 534.742 309.303 532.493 312.8 532.098Z"/>
	<path fill="#0a72a4" d="M159.875 456.276C165.12 455.116 170.314 458.418 171.489 463.658C172.664 468.899 169.377 474.102 164.139 475.292C158.88 476.487 153.65 473.184 152.47 467.922C151.29 462.66 154.609 457.44 159.875 456.276Z"/>
	<path fill="#0a72a4" d="M236.374 911.083C239.462 912.121 241.803 912.418 244.265 914.811C246.312 916.8 247.74 919.357 247.734 922.275C247.75 924.625 246.809 926.88 245.127 928.522C243.661 929.939 241.988 930.909 239.959 930.851C238.907 931.366 238.115 931.724 236.927 931.579C234.353 931.266 232.045 929.759 230.476 927.73C228.867 925.648 227.857 922.858 228.239 920.211C228.846 916.016 233.243 913.401 236.374 911.083Z"/>
	<path fill="#0a72a4" d="M389.329 912.086C394.705 911.726 399.351 915.798 399.699 921.174C400.047 926.549 395.964 931.186 390.587 931.522C385.227 931.857 380.608 927.79 380.261 922.431C379.914 917.073 383.971 912.445 389.329 912.086Z"/>
	<path fill="#0a72a4" d="M83.7917 608.322C88.9825 607.152 94.151 610.365 95.3984 615.537C96.6458 620.709 93.51 625.925 88.3566 627.249C84.9537 628.124 81.3435 627.098 78.9097 624.564C76.4759 622.03 75.5961 618.382 76.6074 615.018C77.6186 611.653 80.3642 609.094 83.7917 608.322Z"/>
	<path fill="#0a72a4" d="M159.226 760.485C164.396 758.962 169.82 761.93 171.325 767.105C172.829 772.28 169.841 777.693 164.66 779.178C159.505 780.656 154.126 777.687 152.63 772.539C151.133 767.39 154.082 762.001 159.226 760.485Z"/>
	<path fill="#0a72a4" d="M236.167 683.251C239.358 683.803 242.075 684.537 244.428 686.91C246.471 688.97 247.657 691.624 247.574 694.547C247.506 696.966 246.574 699.261 244.766 700.903C243.178 702.345 241.57 703.011 239.478 702.908C238.208 703.613 237.507 703.769 236.055 703.574C233.843 703.278 231.886 701.581 230.602 699.858C228.929 697.613 227.856 694.645 228.295 691.827C228.885 688.045 233.341 685.351 236.167 683.251Z"/>
	<path fill="#0a72a4" d="M312.249 684.196C315.708 683.603 319.218 684.918 321.436 687.637C323.654 690.356 324.236 694.058 322.96 697.326C321.684 700.595 318.747 702.923 315.273 703.42C310.004 704.174 305.107 700.557 304.28 695.3C303.453 690.042 307.003 685.096 312.249 684.196Z"/>
	<path fill="#0a72a4" d="M84.1712 304.218C87.6294 303.579 91.1631 304.856 93.4139 307.558C95.6647 310.26 96.2821 313.965 95.0287 317.251C93.7754 320.536 90.8464 322.89 87.3678 323.406C82.1191 324.186 77.2137 320.616 76.3418 315.382C75.47 310.149 78.9531 305.182 84.1712 304.218Z"/>
	<path fill="#0a72a4" d="M235.282 760.468C240.386 759.002 245.723 761.9 247.272 766.979C248.822 772.057 246.012 777.44 240.959 779.073C237.615 780.153 233.949 779.347 231.368 776.963C228.786 774.58 227.691 770.99 228.502 767.571C229.313 764.153 231.905 761.437 235.282 760.468Z"/>
	<path fill="#0a72a4" d="M160.925 912.127C166.244 911.54 171.038 915.36 171.654 920.675C172.27 925.99 168.476 930.804 163.164 931.449C157.811 932.099 152.95 928.27 152.33 922.914C151.709 917.557 155.565 912.719 160.925 912.127Z"/>
	<path fill="#0a72a4" d="M311.473 760.425C314.896 759.556 318.521 760.61 320.943 763.179C323.365 765.748 324.204 769.428 323.135 772.793C322.065 776.158 319.256 778.678 315.795 779.378C310.622 780.424 305.56 777.154 304.387 772.009C303.214 766.865 306.359 761.724 311.473 760.425Z"/>
	<path fill="#0a72a4" d="M311.583 228.32C315.002 227.484 318.606 228.56 321.006 231.135C323.406 233.71 324.227 237.38 323.152 240.732C322.078 244.084 319.275 246.593 315.825 247.292C310.636 248.343 305.56 245.051 304.405 239.885C303.249 234.719 306.44 229.578 311.583 228.32Z"/>
	<path fill="#0a72a4" d="M159.856 380.364C165.119 379.191 170.332 382.524 171.474 387.794C172.616 393.063 169.251 398.255 163.974 399.365C158.742 400.466 153.602 397.136 152.47 391.911C151.338 386.686 154.637 381.527 159.856 380.364Z"/>
	<path fill="#0a72a4" d="M312 456.232C317.27 455.188 322.387 458.617 323.426 463.888C324.464 469.159 321.029 474.272 315.756 475.305C310.492 476.335 305.387 472.907 304.351 467.645C303.314 462.382 306.737 457.274 312 456.232Z"/>
	<path fill="#0a72a4" d="M235.892 380.341C241.059 379.203 246.187 382.406 247.43 387.548C248.674 392.689 245.576 397.881 240.461 399.23C237.057 400.127 233.434 399.114 230.99 396.581C228.545 394.049 227.661 390.393 228.678 387.024C229.695 383.655 232.455 381.099 235.892 380.341Z"/>
	<path fill="#0a72a4" d="M312.164 380.291C317.443 379.327 322.505 382.824 323.471 388.102C324.437 393.38 320.941 398.442 315.662 399.409C310.382 400.376 305.317 396.879 304.351 391.599C303.385 386.319 306.883 381.256 312.164 380.291Z"/>
	<path fill="#0a72a4" d="M312.459 911.116C315.901 911.971 318.589 912.73 320.951 915.556C322.821 917.794 323.731 920.49 323.405 923.411C323.147 925.721 322.09 927.886 320.254 929.346C318.741 930.548 317.165 931.122 315.282 930.92C314.32 931.411 313.589 931.655 312.499 931.516C310.091 931.208 307.83 929.491 306.391 927.616C304.817 925.564 303.73 922.776 304.148 920.161C304.79 916.14 309.367 913.291 312.459 911.116Z"/>
	<path fill="#0a72a4" d="M83.8201 380.35C89.0101 379.161 94.1901 382.371 95.4342 387.548C96.6782 392.724 93.5227 397.937 88.3591 399.236C84.9699 400.088 81.3841 399.054 78.9691 396.529C76.554 394.003 75.682 390.375 76.6857 387.028C77.6893 383.681 80.4138 381.131 83.8201 380.35Z"/>
	<path fill="#0a72a4" d="M84.1973 683.212C87.5868 683.915 90.2655 684.711 92.7234 687.311C94.6043 689.3 95.6871 691.769 95.5882 694.535C95.5035 696.902 94.5434 699.109 92.7991 700.724C91.1576 702.243 89.5789 703.015 87.374 702.919C86.1836 703.631 85.3605 703.73 83.9684 703.573C81.9821 703.349 80.1445 701.858 78.9515 700.343C77.1516 698.057 75.9866 694.905 76.3731 691.972C76.9096 687.902 81.2132 685.515 84.1973 683.212Z"/>
	<path fill="#0a72a4" d="M83.3187 760.457C88.4269 759.017 93.7459 761.943 95.263 767.028C96.78 772.114 93.9334 777.475 88.8705 779.068C85.5275 780.12 81.8771 779.289 79.3184 776.895C76.7597 774.5 75.6896 770.913 76.5182 767.508C77.3469 764.103 79.9457 761.409 83.3187 760.457Z"/>
	<path fill="#0a72a4" d="M311.828 76.2874C317.016 75.15 322.156 78.3913 323.364 83.5629C324.572 88.7344 321.401 93.9173 316.246 95.1963C312.848 96.0394 309.259 94.9883 306.853 92.4453C304.447 89.9022 303.596 86.2611 304.626 82.9153C305.656 79.5695 308.408 77.0371 311.828 76.2874Z"/>
	<path fill="#0a72a4" d="M311.725 608.307C316.975 607.118 322.191 610.426 323.352 615.683C324.512 620.939 321.174 626.136 315.91 627.267C310.688 628.388 305.541 625.082 304.39 619.868C303.239 614.653 306.516 609.488 311.725 608.307Z"/>
	<path fill="#0a72a4" d="M312.505 304.148C317.796 303.396 322.697 307.069 323.462 312.357C324.227 317.646 320.567 322.555 315.28 323.334C309.974 324.115 305.041 320.439 304.274 315.131C303.506 309.824 307.195 304.901 312.505 304.148Z"/>
</svg>
